{
    "asset": {
        "copyright": "2019 (c) Adobe Inc.",
        "generator": "Adobe Dimension - 3aa2998b3d3d63f4d10229f55f1891303b66b8c1",
        "version": "2.0"
    },
    "accessors": [
        {
            "bufferView": 0,
            "componentType": 5126,
            "count": 3719,
            "type": "VEC3",
            "max": [
                0.09999999403953552,
                0.19999998807907105,
                0.10000000894069672
            ],
            "min": [
                -0.1000000387430191,
                0.0,
                -0.1000000536441803
            ]
        },
        {
            "bufferView": 1,
            "componentType": 5126,
            "count": 3719,
            "type": "VEC3"
        },
        {
            "bufferView": 2,
            "componentType": 5126,
            "count": 3719,
            "type": "VEC2"
        },
        {
            "bufferView": 3,
            "componentType": 5125,
            "count": 21240,
            "type": "SCALAR",
            "max": [
                3718.0
            ],
            "min": [
                0.0
            ]
        }
    ],
    "bufferViews": [
        {
            "buffer": 0,
            "byteOffset": 0,
            "byteLength": 44628,
            "target": 34962
        },
        {
            "buffer": 0,
            "byteOffset": 44628,
            "byteLength": 44628,
            "target": 34962
        },
        {
            "buffer": 0,
            "byteOffset": 89256,
            "byteLength": 29752,
            "target": 34962
        },
        {
            "buffer": 0,
            "byteOffset": 119008,
            "byteLength": 84960,
            "target": 34963
        }
    ],
    "buffers": [
        {
            "byteLength": 203968,
            "uri": "Untitled_binary.bin"
        }
    ],
    "cameras": [
        {
            "perspective": {
                "znear": 0.000010000000656873454,
                "yfov": 0.6024156808853149,
                "zfar": 2.0,
                "aspectRatio": 1.3333333730697632
            },
            "type": "perspective",
            "name": "render_camera"
        }
    ],
    "materials": [
        {
            "pbrMetallicRoughness": {
                "baseColorFactor": [
                    0.6307569742202759,
                    0.6307569742202759,
                    0.6307569742202759,
                    1.0
                ],
                "metallicFactor": 0.0,
                "roughnessFactor": 0.503000020980835
            },
            "name": "Sphere Material"
        }
    ],
    "meshes": [
        {
            "name": "sphere_N3D",
            "primitives": [
                {
                    "attributes": {
                        "POSITION": 0,
                        "NORMAL": 1,
                        "TEXCOORD_0": 2
                    },
                    "indices": 3,
                    "material": 0
                }
            ]
        }
    ],
    "nodes": [
        {
            "translation": [
                0.6839032769203186,
                0.41986265778541567,
                -0.06859329342842102
            ],
            "rotation": [
                -0.14116236567497254,
                0.7233929634094238,
                0.15524300932884217,
                0.657780647277832
            ],
            "scale": [
                1.0,
                1.0,
                0.9999999403953552
            ],
            "camera": 0,
            "name": "render_camera_n3d"
        },
        {
            "translation": [
                -0.38114801049232485,
                -5.9604643443123e-10,
                -0.2220805138349533
            ],
            "scale": [
                0.049999985843896869,
                0.05000000819563866,
                0.049999989569187167
            ],
            "mesh": 0,
            "name": "Sphere"
        }
    ],
    "scenes": [
        {
            "nodes": [
                0,
                1
            ],
            "name": "scene"
        }
    ],
    "scene": 0
}